<?xml version="1.0" standalone="no"?>
<!DOCTYPE svg PUBLIC "-//W3C//DTD SVG 20010904//EN"
 "http://www.w3.org/TR/2001/REC-SVG-20010904/DTD/svg10.dtd">
<svg version="1.0" xmlns="http://www.w3.org/2000/svg"
 width="1280.000000pt" height="1280.000000pt" viewBox="0 0 1280.000000 1280.000000"
 preserveAspectRatio="xMidYMid meet">
<metadata>
Created by potrace 1.15, written by Peter Selinger 2001-2017
</metadata>
<g transform="translate(0.000000,1280.000000) scale(0.100000,-0.100000)"
fill="#000000" stroke="none">
<path d="M4265 10983 c-518 -31 -1001 -150 -1455 -357 -877 -401 -1720 -1205
-2162 -2062 -219 -424 -344 -842 -394 -1317 -20 -193 -14 -661 10 -837 55
-388 153 -702 327 -1050 243 -485 566 -871 980 -1172 640 -466 1429 -650 2222
-518 862 144 1685 697 2121 1428 35 58 37 65 26 97 -10 31 -23 41 -91 75 -43
22 -84 40 -91 39 -7 0 -40 -42 -73 -92 -418 -639 -1114 -1117 -1856 -1276
-227 -48 -573 -66 -807 -40 -473 51 -976 273 -1367 602 -490 413 -834 1011
-974 1698 -47 227 -55 330 -56 654 0 338 9 427 65 707 188 918 761 1815 1550
2424 739 571 1681 828 2660 728 683 -70 1335 -370 1755 -805 175 -182 298
-360 422 -614 287 -586 293 -1182 19 -2010 -151 -456 -259 -694 -790 -1750
-227 -451 -445 -894 -485 -985 -186 -423 -338 -898 -391 -1220 -97 -594 66
-1164 411 -1441 125 -101 248 -143 414 -143 234 1 422 91 626 301 226 233 444
581 783 1248 l45 90 -7 -90 c-11 -143 -7 -500 7 -615 45 -373 178 -758 349
-1015 75 -113 222 -266 323 -338 81 -57 230 -129 319 -154 51 -14 101 -18 230
-18 194 0 243 11 395 85 217 105 405 303 576 603 60 107 179 356 179 376 0 6
-37 29 -82 52 -75 38 -85 40 -118 30 -31 -9 -39 -18 -60 -68 -39 -98 -130
-271 -190 -362 -201 -307 -459 -475 -705 -459 -210 14 -365 201 -437 529 -32
148 -32 488 0 695 53 341 135 699 281 1229 423 1536 589 2109 760 2615 215
639 409 1116 653 1605 346 690 680 1058 1063 1166 97 28 280 33 359 10 66 -19
140 -90 156 -149 6 -24 12 -132 13 -245 2 -201 2 -202 29 -249 33 -56 126
-132 187 -153 92 -31 221 -12 313 47 98 62 182 180 207 289 6 24 11 76 11 114
0 415 -420 686 -990 637 -315 -27 -602 -116 -883 -273 -694 -387 -1281 -1043
-1688 -1884 -126 -261 -207 -473 -494 -1300 -275 -791 -373 -1067 -480 -1345
-149 -389 -377 -938 -519 -1253 -378 -834 -753 -1348 -1059 -1454 -75 -26
-190 -24 -242 4 -53 28 -121 103 -147 160 -75 169 -16 463 180 903 33 74 141
315 240 535 224 498 1031 2378 1162 2705 270 674 344 1002 343 1525 0 703
-182 1263 -581 1790 -98 128 -383 413 -537 536 -550 439 -1160 686 -1890 764
-135 15 -546 26 -670 18z"/>
</g>
</svg>
