<svg xmlns="http://www.w3.org/2000/svg" version="1.0" preserveAspectRatio="xMidYMid meet" viewBox="120.15 120.09 9.02 17.91">
<metadata>
Created by potrace 1.16, written by Peter Selinger 2001-2019
</metadata>
<g transform="translate(0.000000,1651.000000) scale(0.100000,-0.100000)" fill="#000000" stroke="none">
<path d="M1216 15304 c6 -3 9 -16 6 -29 -3 -16 0 -25 9 -25 8 0 4 -8 -9 -20 -31 -29 -27 -49 13 -66 19 -8 35 -19 35 -24 0 -6 5 -10 10 -10 25 0 7 31 -26 45 -41 17 -41 34 1 54 28 13 28 14 8 22 -33 12 -37 28 -9 39 36 13 32 20 -11 19 -21 0 -33 -3 -27 -5z"/>
</g>
</svg>